<svg width="128" height="128" xmlns="http://www.w3.org/2000/svg">

 <g>
  <title>background</title>
  <rect fill="none" id="canvas_background" height="402" width="582" y="-1" x="-1"/>
 </g>
 <g>
  <title>Layer 1</title>
  <g id="svg_1">
   <path id="svg_2" fill="#363d52" d="m16,0c-8.86,0 -16,7.13 -16,15.99l0,95.98c0,8.86 7.13,15.99 16,15.99l96,0c8.86,0 16,-7.13 16,-15.99l0,-95.98c0,-8.85 -7.14,-15.99 -16,-15.99l-96,0z"/>
   <path id="svg_3" fill-opacity="0.4" d="m16,0c-8.86,0 -16,7.13 -16,15.99l0,95.98c0,8.86 7.13,15.99 16,15.99l96,0c8.86,0 16,-7.13 16,-15.99l0,-95.98c0,-8.85 -7.14,-15.99 -16,-15.99l-96,0zm0,4l96,0c6.64,0 12,5.35 12,11.99l0,95.98c0,6.64 -5.35,11.99 -12,11.99l-96,0c-6.64,0 -12,-5.35 -12,-11.99l0,-95.98c0,-6.64 5.36,-11.99 12,-11.99z"/>
  </g>
 </g>
</svg>